# xmcd
#
# Track frame offsets:
#	150
#	12031
#	27734
#	40049
#	51569
#	62831
#	71138
#	82724
#	94164
#	107678
#	120870
#	132884
#	148861
#	160107
#
# Disc length: 2312 seconds
#
# Revision: 0
# Processed by: cddbd v1.5.2PL0 Copyright (c) Steve Scherf et al.
# Submitted via: audiograbber 1.83.01
#
DISCID=b909060e
DTITLE=CARLOS ALMENAR OTERO - INTERNACIONAL
DYEAR=2007
DGENRE=Ballad
TTITLE0=CARLOS ALMENAR OTERO - CARA MIA
TTITLE1=CARLOS ALMENAR OTERO - PARLAMI D'AMORE MARIU
TTITLE2=CARLOS ALMENAR OTERO - DANKESCHOEN
TTITLE3=CARLOS ALMENAR OTERO - BY BY ROMANTICA
TTITLE4=CARLOS ALMENAR OTERO - COREINGRATO
TTITLE5=CARLOS ALMENAR OTERO - SOMMERNACHT IN MADRID
TTITLE6=CARLOS ALMENAR OTERO - THE BREEZE AND I
TTITLE7=CARLOS ALMENAR OTERO - SOLENZARA
TTITLE8=CARLOS ALMENAR OTERO - SAND IN MY SHOES
TTITLE9=CARLOS ALMENAR OTERO - L´AMOUR C´EST POUR RIEN
TTITLE10=CARLOS ALMENAR OTERO - ICH KUSSE  IHRE HAND
TTITLE11=CARLOS ALMENAR OTERO - AUF WIDERSEHN
TTITLE12=CARLOS ALMENAR OTERO - MARECHIARE
TTITLE13=CARLOS ALMENAR OTERO - IL ILUSTRASCARPEN
EXTD=FUNDACION INTERNACIONAL JOSE GUILLERMO CARRILLO
EXTT0=Autores: Tulio Trapani and Lee Lange
EXTT1=Autores: Ennio Neri, Louis Raymond,\nCesare Bixio and Carlos Alemenar Otero
EXTT2=Autores: Bert Kaempfert and Carlos Almenar Otero
EXTT3=Autor: Carl Goetz
EXTT4=Autor: Salvatore Cardillo
EXTT5=Autores: Isaac Albéniz and Vmnwerth
EXTT6=Autor: Ernesto Lecuona
EXTT7=Autores: Dominique Marfisi and Catherine Darbal
EXTT8=DD
EXTT9=Autores: P.R. Blanc, Fumio Nagata and Carlos Almenar Otero
EXTT10=Autores: Ralph Erwin and Fritz Rotter
EXTT11=Autores: Napoleón Lucena and Carlos Almenar
EXTT12=Autor: Paolo Tosti
EXTT13=Autor Totto Guio
PLAYORDER=
